# xmcd CD database file
#
# Track frame offsets:
#	150
#	15660
#	31932
#	45145
#	58240
#	75630
#	89445
#	108727
#	124580
#	133742
#
# Disc length: 1940 seconds
#
# Revision: 2
# Processed by: cddbd v1.5.1PL2 Copyright (c) Steve Scherf et al.
# Submitted via: CDex 1.51
#
DISCID=7b07920a
DTITLE=The Paladins - Years Since Yesterday
DYEAR=1988
DGENRE=Blues
TTITLE0=Years Since Yesterday
TTITLE1=Good Lovin'
TTITLE2=Going Down to Big Mary's
TTITLE3=Happy Home
TTITLE4=She's Fine
TTITLE5=Your New Love
TTITLE6=You And I
TTITLE7=Don't Stay Out All Night
TTITLE8=Mean Man
TTITLE9=Right Track
EXTD=YEAR: 1988
EXTT0=
EXTT1=
EXTT2=
EXTT3=
EXTT4=
EXTT5=
EXTT6=
EXTT7=
EXTT8=
EXTT9=
PLAYORDER=
